name D:\school\WTK\thesis\model\3dpredictsim\Results\debug_batch\Pog_s1_tmt_bCst_d00_k1000_ig24_pas.mot
datacolumns 128
datarows 4
range 1.66811196 1.70147420
endheader
time	pelvis_tilt	pelvis_list	pelvis_rotation	pelvis_tx	pelvis_ty	pelvis_tz	hip_flexion_l	hip_adduction_l	hip_rotation_l	hip_flexion_r	hip_adduction_r	hip_rotation_r	knee_angle_l	knee_angle_r	ankle_angle_l	ankle_angle_r	subtalar_angle_l	subtalar_angle_r	tmt_angle_l	tmt_angle_r	mtp_angle_l	mtp_angle_r	lumbar_extension	lumbar_bending	lumbar_rotation	arm_flex_l	arm_add_l	arm_rot_l	arm_flex_r	arm_add_r	arm_rot_r	elbow_flex_l	elbow_flex_r	pro_sup_l	pro_sup_r	glut_med1_l/activation	glut_med2_l/activation	glut_med3_l/activation	glut_min1_l/activation	glut_min2_l/activation	glut_min3_l/activation	semimem_l/activation	semiten_l/activation	bifemlh_l/activation	bifemsh_l/activation	sar_l/activation	add_long_l/activation	add_brev_l/activation	add_mag1_l/activation	add_mag2_l/activation	add_mag3_l/activation	tfl_l/activation	pect_l/activation	grac_l/activation	glut_max1_l/activation	glut_max2_l/activation	glut_max3_l/activation	iliacus_l/activation	psoas_l/activation	quad_fem_l/activation	gem_l/activation	peri_l/activation	rect_fem_l/activation	vas_med_l/activation	vas_int_l/activation	vas_lat_l/activation	med_gas_l/activation	lat_gas_l/activation	soleus_l/activation	tib_post_l/activation	flex_dig_l/activation	flex_hal_l/activation	tib_ant_l/activation	per_brev_l/activation	per_long_l/activation	per_tert_l/activation	ext_dig_l/activation	ext_hal_l/activation	ercspn_l/activation	intobl_l/activation	extobl_l/activation	glut_med1_r/activation	glut_med2_r/activation	glut_med3_r/activation	glut_min1_r/activation	glut_min2_r/activation	glut_min3_r/activation	semimem_r/activation	semiten_r/activation	bifemlh_r/activation	bifemsh_r/activation	sar_r/activation	add_long_r/activation	add_brev_r/activation	add_mag1_r/activation	add_mag2_r/activation	add_mag3_r/activation	tfl_r/activation	pect_r/activation	grac_r/activation	glut_max1_r/activation	glut_max2_r/activation	glut_max3_r/activation	iliacus_r/activation	psoas_r/activation	quad_fem_r/activation	gem_r/activation	peri_r/activation	rect_fem_r/activation	vas_med_r/activation	vas_int_r/activation	vas_lat_r/activation	med_gas_r/activation	lat_gas_r/activation	soleus_r/activation	tib_post_r/activation	flex_dig_r/activation	flex_hal_r/activation	tib_ant_r/activation	per_brev_r/activation	per_long_r/activation	per_tert_r/activation	ext_dig_r/activation	ext_hal_r/activation	ercspn_r/activation	intobl_r/activation	extobl_r/activation	
          1.66811196	         -2.92531961	          2.58586367	         -6.22615751	          2.08513995	          0.85444159	          0.00314311	         31.74998539	          3.34268394	         -2.82768146	        -18.65266992	         -2.33159289	          7.30593335	        -13.91366439	         -7.50058584	          6.68253968	          0.43919447	         -4.02684565	         10.41704639	          0.03277114	          1.71297129	         -0.10606243	         22.46811312	         -2.07964227	         -0.94713172	          2.23928825	         -9.81710997	        -13.54243195	          9.89126123	          9.59077680	        -13.46138605	         19.29248695	         11.79850864	         37.33656460	         86.51662706	         86.51662706	          0.05926718	          0.05926697	          0.05000011	          0.05926732	          0.05926730	          0.05002274	          0.29468947	          0.05000100	          0.05926746	          0.05000028	          0.05000032	          0.11700325	          0.27062419	          0.13535104	          0.13527485	          0.13040609	          0.05000014	          0.05927310	          0.05927494	          0.05000026	          0.14522453	          0.17380807	          0.05926721	          0.05000105	          0.29748179	          0.23095917	          0.14314982	          0.05546195	          0.17260386	          0.16683210	          0.14913787	          0.05000006	          0.05000006	          0.05000011	          0.05000000	          0.05000020	          0.05000015	          0.59664374	          0.36994007	          0.21278976	          0.34471674	          0.56965126	          0.32118709	          0.06804455	          0.09181350	          0.09870740	          0.24319841	          0.09129548	          0.06636890	          0.29498025	          0.18939595	          0.09870764	          0.05000084	          0.05000015	          0.05000010	          0.07298094	          0.10587712	          0.11940293	          0.07624923	          0.05000153	          0.05000165	          0.05000050	          0.31940462	          0.11699943	          0.05000128	          0.05000170	          0.05000114	          0.05000072	          0.42607597	          0.67362228	          0.05000019	          0.05000044	          0.05000013	          0.26562816	          0.11008776	          0.07296512	          0.06275045	          0.30712272	          0.41614644	          0.28986683	          0.27552093	          0.27740837	          0.36710578	          0.05000002	          0.05926755	          0.16223756	          0.05000013	          0.05000003	          0.05000012	          0.05000004	          0.05000004	          0.05000005	
          1.67923270	         -2.91559492	          2.67430256	         -6.50983056	          2.10220278	          0.85336092	          0.00292039	         31.15466230	          3.69671052	         -2.59296371	        -18.45839401	         -2.64816478	          7.10523565	        -14.28122401	         -9.59287447	          6.03772679	         -0.44858367	         -4.50033943	         11.43656794	          0.02056331	          1.44478427	         -0.06898312	         23.56346562	         -1.85248237	         -1.16838829	          2.32818716	        -11.03298083	        -13.53023417	          9.80191728	          9.35771144	        -13.47469368	         19.37868750	         11.78272153	         38.60276040	         86.51662706	         86.51662706	          0.05000001	          0.05000007	          0.14003025	          0.05000006	          0.05000008	          0.05000011	          0.24861072	          0.05000013	          0.05000020	          0.05000010	          0.05001190	          0.09870821	          0.22830834	          0.32353430	          0.21751412	          0.14345163	          0.05000062	          0.05000597	          0.05000701	          0.10623976	          0.15098429	          0.14663160	          0.05000009	          0.05000076	          0.46436283	          0.19484545	          0.12076634	          0.05926799	          0.15718899	          0.18032215	          0.15105521	          0.05000017	          0.05000134	          0.05000001	          0.06759889	          0.07836271	          0.07025269	          0.50335783	          0.38706246	          0.25116923	          0.29081540	          0.54469594	          0.27096495	          0.05740481	          0.07745716	          0.08327309	          0.20517091	          0.07702015	          0.05781447	          0.24885598	          0.15978123	          0.08327333	          0.05000416	          0.05000062	          0.05000136	          0.06156935	          0.08932186	          0.21510475	          0.13436170	          0.07025151	          0.05926853	          0.05926766	          0.26946127	          0.09870707	          0.05001546	          0.05000454	          0.05000436	          0.05925697	          0.35945295	          0.62048497	          0.05926719	          0.05926744	          0.05926720	          0.22409343	          0.14153564	          0.16439284	          0.16439265	          0.25909969	          0.35107601	          0.24454201	          0.23243943	          0.23403191	          0.30970377	          0.05000001	          0.05000030	          0.15846629	          0.05000005	          0.05000001	          0.05000008	          0.05832981	          0.05926741	          0.05000028	
          1.69035345	         -2.90195558	          2.76112521	         -6.76038080	          2.11951465	          0.85231484	          0.00270709	         30.41256264	          3.98643360	         -2.32407356	        -18.17276329	         -2.95037949	          6.89238790	        -14.93365031	        -11.82705618	          5.52886746	         -1.54225618	         -5.01065091	         12.38714954	         -0.00904089	          1.18414807	         -0.19260569	         24.47390222	         -1.60677303	         -1.39401281	          2.40480167	        -12.24294055	        -13.52216364	          9.76325574	          9.02815667	        -13.48812824	         19.38009270	         11.80461328	         39.84392474	         86.51662706	         86.51662706	          0.26768359	          0.26424695	          0.34849031	          0.34434432	          0.22755109	          0.20757013	          0.20973695	          0.05040269	          0.07029290	          0.07443372	          0.05000162	          0.08327385	          0.19260921	          0.27294520	          0.18350286	          0.15278616	          0.05000035	          0.05927055	          0.10020207	          0.19760615	          0.19142119	          0.13268455	          0.05262388	          0.05000044	          0.39175311	          0.16437869	          0.24018047	          0.05000061	          0.13261031	          0.15212629	          0.12743563	          0.05000375	          0.05092069	          0.05669017	          0.05702909	          0.06610964	          0.05926775	          0.56589925	          0.43323669	          0.21189547	          0.50795393	          0.61529051	          0.28901736	          0.07360453	          0.09526465	          0.07025216	          0.28496856	          0.06497697	          0.05000005	          0.30906700	          0.13479721	          0.07025239	          0.05000151	          0.05000015	          0.05000012	          0.05194216	          0.07535542	          0.18147019	          0.11335252	          0.05926679	          0.05000139	          0.05000051	          0.27607300	          0.08327436	          0.05000063	          0.05000129	          0.05000074	          0.05000038	          0.30324743	          0.57914080	          0.05000011	          0.05000051	          0.05000011	          0.18905323	          0.11940461	          0.13868775	          0.13868758	          0.21858575	          0.29618026	          0.20630437	          0.19609423	          0.19743777	          0.26127723	          0.05000003	          0.10589647	          0.18883453	          0.05000014	          0.05000013	          0.05000017	          0.06573865	          0.05000011	          0.05000003	
          1.70147420	         -2.88647619	          2.83737779	         -6.97164749	          2.13684985	          0.85133254	          0.00246666	         29.60341251	          4.26324082	         -2.05575020	        -17.77238417	         -3.22933432	          6.67748356	        -15.54274534	        -14.21372071	          5.14092795	         -2.80276729	         -5.53171546	         13.26957498	         -0.01805221	          0.90487078	         -0.19614884	         25.10166403	         -1.36536520	         -1.61422334	          2.47102931	        -13.39186311	        -13.51362455	          9.78154171	          8.64232840	        -13.50862335	         19.32529066	         11.82969388	         41.03131178	         86.51662706	         86.51662706	          0.35569172	          0.38609351	          0.44533144	          0.29050157	          0.19198132	          0.24166186	          0.17694160	          0.10732923	          0.07750252	          0.07025007	          0.05000035	          0.07025285	          0.16249209	          0.23026748	          0.24001952	          0.18870158	          0.05000020	          0.05000461	          0.13803251	          0.27764075	          0.23396894	          0.19025614	          0.05000007	          0.05000008	          0.33049697	          0.13867582	          0.20263328	          0.05000003	          0.11924022	          0.21350302	          0.16636984	          0.05000001	          0.05000002	          0.05000000	          0.05000000	          0.05577252	          0.05000045	          0.64467633	          0.36549600	          0.18984076	          0.68881353	          0.64452593	          0.39657298	          0.08973718	          0.08036867	          0.05926724	          0.24040973	          0.05481693	          0.05000005	          0.26074011	          0.11371979	          0.05926747	          0.05000180	          0.05000012	          0.05000013	          0.05000006	          0.06357265	          0.18970205	          0.14179435	          0.05000064	          0.05000395	          0.06137568	          0.23768762	          0.07025374	          0.05000035	          0.05000144	          0.05000104	          0.05000077	          0.25583038	          0.52151994	          0.05000010	          0.05000041	          0.05000011	          0.15949207	          0.11700248	          0.11700251	          0.11700246	          0.18440674	          0.24986825	          0.17404573	          0.16543213	          0.16656564	          0.22042287	          0.08331961	          0.14994773	          0.15930793	          0.05000052	          0.16241090	          0.05000148	          0.09687775	          0.05000001	          0.05000002	
